<?xml version="1.0" standalone="no"?>
<!DOCTYPE svg PUBLIC "-//W3C//DTD SVG 20010904//EN"
 "http://www.w3.org/TR/2001/REC-SVG-20010904/DTD/svg10.dtd">
<svg version="1.0" xmlns="http://www.w3.org/2000/svg"
 width="48.000000pt" height="48.000000pt" viewBox="0 0 48.000000 48.000000"
 preserveAspectRatio="xMidYMid meet">

<g transform="translate(0.000000,48.000000) scale(0.100000,-0.100000)"
fill="#000000" stroke="none">
<path d="M131 411 c-23 -23 -27 -84 -12 -171 7 -37 9 -40 10 -14 2 53 13 94
25 94 7 0 28 9 49 19 36 18 38 18 74 0 21 -10 42 -19 49 -19 12 0 23 -41 25
-94 l1 -31 8 30 c4 17 8 60 9 98 1 56 -3 71 -20 88 -17 17 -28 20 -57 15 -21
-4 -44 -6 -52 -6 -8 0 -31 2 -52 6 -29 5 -40 2 -57 -15z"/>
<path d="M147 273 c-13 -12 -7 -33 8 -33 8 0 15 -7 15 -15 0 -8 7 -15 15 -15
8 0 15 7 15 15 0 8 7 15 15 15 8 0 15 4 15 10 0 21 -67 40 -83 23z"/>
<path d="M262 268 c-16 -16 -15 -28 3 -28 8 0 15 -7 15 -15 0 -8 7 -15 15 -15
8 0 15 7 15 15 0 8 7 15 16 15 9 0 14 7 12 18 -4 21 -57 29 -76 10z"/>
<path d="M178 183 c7 -3 16 -2 19 1 4 3 -2 6 -13 5 -11 0 -14 -3 -6 -6z"/>
<path d="M288 183 c7 -3 16 -2 19 1 4 3 -2 6 -13 5 -11 0 -14 -3 -6 -6z"/>
<path d="M164 156 c-3 -8 -1 -23 5 -35 9 -16 8 -21 -9 -26 -11 -3 -20 -13 -20
-21 0 -11 11 -9 50 11 27 14 65 25 84 25 26 0 36 5 41 20 3 11 3 24 0 30 -9
14 -48 13 -63 -2 -9 -9 -15 -9 -24 0 -17 17 -57 15 -64 -2z"/>
</g>
</svg>
